<svg width="505" height="271" viewBox="0 0 505 271" fill="none" xmlns="http://www.w3.org/2000/svg"><path d="M108.329 56.5186C106.611 57.7627 104.597 58.7106 102.286 59.3623C100.035 59.9548 96.9837 60.251 93.1328 60.251C89.3411 60.251 84.3942 59.9844 78.292 59.4512C76.8701 63.3021 75.4186 67.8047 73.9375 72.959L63.7178 107.795C51.0986 149.503 37.6501 172.905 23.3721 178C22.3649 178.415 21.0615 178.622 19.4619 178.622C17.9215 178.622 16.6478 178.415 15.6406 178C14.6927 177.645 13.8929 177.171 13.2412 176.578C11.9378 175.512 11.2861 174.445 11.2861 173.379C11.2861 172.312 11.5527 171.602 12.0859 171.246L14.3965 169.824C22.9277 164.255 30.748 149.444 37.8574 125.391L44.2559 103.707C50.0026 84.2155 55.3643 68.9007 60.3408 57.7627C55.6605 57.348 52.1058 57.1406 49.6768 57.1406C42.6859 57.1406 37.6501 58.1182 34.5693 60.0732C31.5479 62.0283 29.415 64.1611 28.1709 66.4717C26.986 68.723 26.3639 70.293 26.3047 71.1816C26.127 72.8405 25.5938 73.9069 24.7051 74.3809C23.8164 74.7956 22.7204 75.0029 21.417 75.0029C20.1729 75.0029 18.8695 74.5586 17.5068 73.6699C16.1442 72.722 15.0186 71.5371 14.1299 70.1152C12.234 67.2122 11.4935 63.9538 11.9082 60.3398C12.3229 56.6667 13.5078 53.5267 15.4629 50.9199C17.4772 48.2539 19.847 46.0915 22.5723 44.4326C27.6081 41.3519 32.9105 39.8115 38.4795 39.8115C44.1077 39.8115 49.4102 40.1077 54.3867 40.7002C59.4225 41.2334 64.4287 41.8555 69.4053 42.5664C82.6169 44.3438 91.0296 45.2324 94.6436 45.2324C98.2575 45.2324 100.924 45.0251 102.642 44.6104C104.419 44.1956 105.93 43.5736 107.174 42.7441C108.418 41.9147 109.277 41.3815 109.751 41.1445C110.284 40.8483 111.114 40.7002 112.239 40.7002C114.017 40.7002 114.787 42.0628 114.55 44.7881C114.313 47.4541 113.661 49.7646 112.595 51.7197C111.528 53.6156 110.106 55.2152 108.329 56.5186ZM160.85 154.361C160.85 159.812 162.775 162.537 166.626 162.537C169.292 162.537 171.484 162.122 173.202 161.293C174.979 160.464 176.164 160.049 176.757 160.049C178.001 160.049 178.623 160.701 178.623 162.004C178.623 167.099 175.957 171.483 170.625 175.156C164.997 179.007 159.25 179.955 153.385 178C149.534 176.637 146.69 173.705 144.854 169.202C143.965 166.892 143.521 164.788 143.521 162.893C143.521 159.812 143.817 156.553 144.409 153.117C138.899 164.374 132.057 172.135 123.881 176.4C120.622 178.059 117.157 178.889 113.483 178.889C109.81 178.889 106.611 178.148 103.886 176.667C101.22 175.127 98.9388 173.023 97.043 170.357C93.1921 164.788 91.4443 157.798 91.7998 149.385C92.1553 138.839 95.2656 128.501 101.131 118.37C106.522 108.891 113.335 101.16 121.57 95.1758C129.805 89.0736 137.507 86.0225 144.676 86.0225C151.844 86.0225 157.621 89.3105 162.005 95.8867C166.093 89.3105 169.707 86.0225 172.847 86.0225C176.224 86.0225 178.771 86.6445 180.489 87.8887C183.748 90.2585 184.903 92.332 183.955 94.1094C169.085 124.561 161.442 143.52 161.027 150.984C160.909 152.051 160.85 153.176 160.85 154.361ZM111.528 154.717C111.528 161.826 113.809 165.381 118.371 165.381C121.867 165.381 126.162 162.419 131.257 156.494C138.722 147.785 145.327 136.055 151.074 121.303C152.911 116.682 154.451 112.061 155.695 107.439C155.458 103.411 153.77 100.449 150.63 98.5527C149.563 97.901 147.964 97.5752 145.831 97.5752C143.757 97.5752 141.299 98.3454 138.455 99.8857C135.671 101.426 132.945 103.529 130.279 106.195C127.673 108.861 125.214 112.031 122.903 115.704C120.652 119.318 118.667 123.258 116.949 127.523C113.335 136.647 111.528 145.712 111.528 154.717ZM195.241 174.445C193.76 172.905 192.546 170.95 191.598 168.58C190.709 166.151 190.265 163.367 190.265 160.227C190.265 157.027 190.976 152.762 192.397 147.43C193.879 142.098 195.745 136.025 197.996 129.212L205.461 107.084C216.066 76.2767 222.198 52.4603 223.856 35.6348C224.39 30.6582 226.819 28.1699 231.144 28.1699C233.869 28.1699 236.12 28.8216 237.897 30.125C241.334 32.7318 242.993 35.6348 242.874 38.834C242.756 42.0332 242.193 45.9434 241.186 50.5645C240.178 55.1263 238.875 60.1325 237.275 65.583C235.676 70.9743 233.839 76.6914 231.766 82.7344L219.502 118.814C212.452 139.313 208.927 152.554 208.927 158.538C208.927 161.737 210.23 163.337 212.837 163.337C215.325 163.337 217.576 162.804 219.591 161.737C221.664 160.671 222.997 160.138 223.59 160.138C224.834 160.138 225.456 160.76 225.456 162.004C225.456 167.277 222.76 171.69 217.369 175.245C213.755 177.674 210.438 178.889 207.416 178.889C204.454 178.889 202.054 178.533 200.218 177.822C198.381 177.111 196.722 175.986 195.241 174.445ZM289.707 65.2275C288.404 66.5902 286.923 67.7158 285.264 68.6045C283.605 69.4339 281.857 69.9671 280.021 70.2041C278.184 70.3818 276.436 70.0856 274.777 69.3154C273.178 68.5452 271.785 67.4492 270.601 66.0273C268.053 63.0651 266.779 60.0732 266.779 57.0518C266.779 54.0303 267.253 51.779 268.201 50.2979C269.208 48.7575 270.452 47.5133 271.934 46.5654C274.777 44.7288 277.443 43.8105 279.932 43.8105C282.479 43.8105 284.434 43.9883 285.797 44.3438C287.219 44.6992 288.522 45.2917 289.707 46.1211C292.61 48.0762 294.062 50.4756 294.062 53.3193C294.062 56.1038 293.647 58.444 292.817 60.3398C292.047 62.1764 291.01 63.8057 289.707 65.2275ZM271.489 161.382C273.03 161.382 273.8 162.389 273.8 164.403C273.8 167.069 272.585 169.824 270.156 172.668C266.602 176.815 261.832 178.889 255.849 178.889C248.976 178.889 244.266 176.104 241.719 170.535C240.771 168.58 240.297 166.21 240.297 163.426C240.297 160.641 240.771 157.561 241.719 154.184C242.726 150.747 243.94 147.163 245.362 143.431C246.843 139.639 248.443 135.818 250.161 131.967L254.871 120.77C258.307 112.416 260.025 106.906 260.025 104.24C260.025 101.574 259.729 99.8265 259.137 98.9971C258.604 98.1084 258.011 97.4271 257.359 96.9531L255.582 95.709C254.99 95.2943 254.693 94.5833 254.693 93.5762C254.693 92.5098 255.078 91.5026 255.849 90.5547C256.678 89.6068 257.744 88.7773 259.048 88.0664C261.714 86.7038 264.824 86.0225 268.379 86.0225C277.088 86.0225 281.442 88.3034 281.442 92.8652C281.442 98.1973 280.05 104.299 277.266 111.172C274.481 117.985 272.111 123.495 270.156 127.701L264.824 139.965C260.914 148.97 258.959 155.457 258.959 159.427C258.959 162.034 260.262 163.337 262.869 163.337C265.417 163.337 267.342 163.011 268.646 162.359C269.949 161.708 270.897 161.382 271.489 161.382ZM345.516 154.717C347.234 154.717 348.093 155.872 348.093 158.183C348.093 160.138 347.5 162.034 346.315 163.87C344.716 167.306 341.517 170.565 336.718 173.646C331.267 177.141 325.787 178.889 320.277 178.889C310.739 178.889 304.696 174.623 302.148 166.092C299.127 155.961 303.659 134.485 315.745 101.663C308.932 101.071 305.229 99.8857 304.637 98.1084C304.459 97.5752 304.37 97.0124 304.37 96.4199C304.37 95.7682 304.637 95.0277 305.17 94.1982C305.762 93.3688 306.503 92.569 307.392 91.7988C309.465 90.0807 311.568 89.2217 313.701 89.2217H320.722C327.12 74.2327 331.682 65.7015 334.407 63.6279C335.711 62.68 337.162 62.2061 338.762 62.2061C340.361 62.2061 341.694 62.4134 342.761 62.8281C343.827 63.2428 344.775 63.8353 345.604 64.6055C347.5 66.3828 348.448 68.3675 348.448 70.5596C348.448 71.7445 348.093 73.1071 347.382 74.6475L340.806 88.9551H342.938C346.612 88.9551 349.574 88.9255 351.825 88.8662C351.825 88.8662 353.514 88.8366 356.891 88.7773C358.016 88.7181 359.409 88.6885 361.067 88.6885C362.785 88.6885 363.645 89.3105 363.645 90.5547C363.645 98.375 354.402 102.285 335.918 102.285H335.207L329.164 117.926C322.351 136.41 318.944 149.355 318.944 156.761C318.944 158.834 319.418 160.464 320.366 161.648C321.314 162.774 323.091 163.337 325.698 163.337C328.305 163.337 330.675 162.893 332.808 162.004C334.94 161.115 336.807 160.138 338.406 159.071C340.006 157.946 341.368 156.938 342.494 156.05C343.679 155.161 344.686 154.717 345.516 154.717ZM427.807 154.361C427.807 159.812 429.732 162.537 433.583 162.537C436.249 162.537 438.441 162.122 440.159 161.293C441.937 160.464 443.121 160.049 443.714 160.049C444.958 160.049 445.58 160.701 445.58 162.004C445.58 167.099 442.914 171.483 437.582 175.156C431.954 179.007 426.207 179.955 420.342 178C416.491 176.637 413.647 173.705 411.811 169.202C410.922 166.892 410.478 164.788 410.478 162.893C410.478 159.812 410.774 156.553 411.366 153.117C405.856 164.374 399.014 172.135 390.838 176.4C387.579 178.059 384.114 178.889 380.44 178.889C376.767 178.889 373.568 178.148 370.843 176.667C368.177 175.127 365.896 173.023 364 170.357C360.149 164.788 358.401 157.798 358.757 149.385C359.112 138.839 362.223 128.501 368.088 118.37C373.479 108.891 380.292 101.16 388.527 95.1758C396.762 89.0736 404.464 86.0225 411.633 86.0225C418.801 86.0225 424.578 89.3105 428.962 95.8867C433.05 89.3105 436.664 86.0225 439.804 86.0225C443.181 86.0225 445.728 86.6445 447.446 87.8887C450.705 90.2585 451.86 92.332 450.912 94.1094C436.042 124.561 428.399 143.52 427.984 150.984C427.866 152.051 427.807 153.176 427.807 154.361ZM378.485 154.717C378.485 161.826 380.766 165.381 385.328 165.381C388.824 165.381 393.119 162.419 398.214 156.494C405.679 147.785 412.285 136.055 418.031 121.303C419.868 116.682 421.408 112.061 422.652 107.439C422.415 103.411 420.727 100.449 417.587 98.5527C416.521 97.901 414.921 97.5752 412.788 97.5752C410.715 97.5752 408.256 98.3454 405.412 99.8857C402.628 101.426 399.902 103.529 397.236 106.195C394.63 108.861 392.171 112.031 389.86 115.704C387.609 119.318 385.624 123.258 383.906 127.523C380.292 136.647 378.485 145.712 378.485 154.717Z" fill="#FC6963"/><path d="M349.438 235.762L349.407 238.487C349.704 241.307 350.851 243.131 352.846 243.958C353.536 244.239 354.335 244.331 355.244 244.236C356.153 244.14 356.953 243.903 357.644 243.523C358.332 243.121 358.882 242.639 359.294 242.077C360.163 240.925 360.525 239.662 360.38 238.286C360.235 236.911 359.824 235.694 359.147 234.634C358.47 233.574 357.653 232.529 356.696 231.498L353.538 228.366C350.993 225.9 349.219 223.601 348.217 221.467C347.212 219.311 346.611 217.3 346.415 215.435C346.219 213.571 346.255 211.787 346.524 210.086C346.813 208.359 347.287 206.706 347.946 205.128C348.602 203.528 349.435 202.038 350.445 200.659C351.455 199.28 352.611 198.062 353.914 197.006C356.621 194.741 359.408 193.458 362.275 193.156C365.142 192.855 367.422 193.015 369.114 193.639C370.805 194.262 372.204 195.128 373.311 196.237C375.369 198.33 376.569 200.996 376.91 204.236C377.227 207.243 376.674 210.164 375.252 213.001C373.946 215.589 372.36 217.312 370.494 218.168C370.096 218.422 369.524 218.588 368.779 218.667C368.056 218.743 367.427 218.703 366.892 218.547C366.378 218.365 365.915 218.108 365.503 217.774C364.601 217.044 364.1 216.201 364 215.246C363.931 214.593 364.084 214.141 364.458 213.89C366.129 212.747 367.521 211.199 368.635 209.243C369.848 207.112 370.387 205.064 370.251 203.099C370.112 201.11 369.481 199.704 368.357 198.879C367.254 198.029 365.864 197.692 364.186 197.869C362.507 198.046 361.033 198.59 359.762 199.501C358.488 200.389 357.43 201.526 356.586 202.911C354.777 205.882 354.071 209.244 354.466 212.997C354.728 215.491 355.868 218.034 357.885 220.626C358.733 221.739 359.637 222.834 360.599 223.911C361.582 224.962 362.51 226.055 363.383 227.188C365.382 229.83 366.499 232.269 366.734 234.507C366.97 236.744 366.761 238.675 366.107 240.3C365.476 241.921 364.557 243.373 363.348 244.655C360.741 247.428 357.608 249.007 353.949 249.392C350.499 249.755 347.734 249.009 345.653 247.154C343.987 245.656 343.053 243.94 342.849 242.005C342.628 239.908 343.036 238.074 344.073 236.503C344.866 235.312 345.672 234.567 346.489 234.269C348.279 233.586 349.262 234.083 349.438 235.762ZM397.945 235.145C398.621 235.074 399.007 235.493 399.103 236.402C399.184 237.171 399.029 237.942 398.639 238.713C398.152 240.131 397.028 241.546 395.268 242.957C393.268 244.558 391.184 245.472 389.017 245.7C385.264 246.095 382.71 244.667 381.354 241.416C379.746 237.556 380.64 228.919 384.035 215.505C381.33 215.554 379.824 215.241 379.518 214.567C379.426 214.364 379.368 214.147 379.343 213.913C379.316 213.657 379.39 213.355 379.566 213.006C379.764 212.655 380.023 212.31 380.34 211.97C381.085 211.208 381.877 210.783 382.716 210.695L385.478 210.404C387.375 204.242 388.816 200.697 389.802 199.768C390.276 199.341 390.827 199.095 391.457 199.028C392.086 198.962 392.619 198.988 393.056 199.107C393.493 199.226 393.89 199.42 394.248 199.689C395.068 200.31 395.523 201.051 395.614 201.914C395.663 202.38 395.579 202.931 395.363 203.566L393.369 209.468L394.208 209.379C395.653 209.227 396.817 209.093 397.7 208.976C397.7 208.976 398.363 208.895 399.69 208.732C400.13 208.662 400.677 208.592 401.329 208.524C402.005 208.452 402.369 208.662 402.42 209.151C402.744 212.228 399.27 214.149 391.998 214.914L391.718 214.944L389.988 221.348C388.073 228.902 387.269 234.136 387.576 237.05C387.662 237.866 387.916 238.487 388.338 238.914C388.757 239.317 389.48 239.465 390.505 239.357C391.531 239.249 392.445 238.976 393.247 238.538C394.05 238.101 394.743 237.639 395.328 237.153C395.911 236.644 396.406 236.191 396.812 235.795C397.241 235.396 397.619 235.18 397.945 235.145ZM407.295 241.019C406.218 240.19 405.325 239.094 404.616 237.731C403.904 236.344 403.434 234.674 403.204 232.718C402.975 230.763 402.999 228.757 403.278 226.701C403.58 224.642 404.087 222.633 404.8 220.672C405.536 218.71 406.459 216.845 407.569 215.078C408.703 213.309 409.987 211.737 411.421 210.36C414.549 207.391 417.943 205.714 421.602 205.329C426.404 204.824 429.878 206.591 432.023 210.631C433.557 213.556 434.015 217.244 433.4 221.692C432.84 225.781 431.431 229.629 429.171 233.237C426.934 236.842 424.13 239.53 420.758 241.299C419.06 242.184 417.348 242.718 415.624 242.9C413.922 243.079 412.372 243.018 410.974 242.717C409.598 242.414 408.372 241.848 407.295 241.019ZM412.188 223.359C411.67 225.157 411.297 226.988 411.069 228.85C410.864 230.71 410.859 232.454 411.054 234.083C411.247 235.689 411.626 236.934 412.19 237.817C412.775 238.675 413.604 239.047 414.676 238.934C415.748 238.821 416.759 238.35 417.709 237.519C418.679 236.663 419.59 235.577 420.441 234.262C421.293 232.947 422.066 231.451 422.762 229.776C423.457 228.1 424.041 226.365 424.512 224.572C425.538 220.669 425.875 217.264 425.522 214.355C425.252 211.791 424.556 210.215 423.433 209.626C422.984 209.39 422.375 209.313 421.606 209.394C420.86 209.473 420.034 209.913 419.129 210.715C418.221 211.494 417.339 212.518 416.483 213.786C415.627 215.055 414.826 216.518 414.082 218.175C413.337 219.833 412.706 221.561 412.188 223.359ZM441.196 239.006C440.693 238.705 440.28 238.36 439.956 237.97C439.63 237.556 439.439 237.199 439.384 236.899C439.326 236.575 439.344 236.184 439.437 235.727C439.551 235.243 439.702 234.662 439.89 233.982C443.413 221.781 444.964 213.675 444.542 209.666C444.354 208.555 443.886 207.803 443.138 207.41L442.387 206.994C442.16 206.853 442.014 206.586 441.949 206.192C441.905 205.773 442.015 205.36 442.278 204.956C442.542 204.551 442.904 204.183 443.364 203.851C444.31 203.21 445.307 202.834 446.356 202.723C447.428 202.611 448.268 202.64 448.875 202.812C449.506 202.981 450.052 203.242 450.513 203.594C451.487 204.34 452.023 205.179 452.121 206.111C452.243 207.041 452.237 207.996 452.105 208.976C451.996 209.954 451.839 210.925 451.634 211.889C451.426 212.83 451.215 213.736 451.001 214.607C450.784 215.455 450.649 216.082 450.598 216.488C450.497 217.323 450.481 217.843 450.55 218.048C451.058 217.5 451.345 216.987 451.413 216.508L452.504 213.777C454.96 208.004 457.54 204.08 460.244 202.004C461.031 201.426 462.008 201.076 463.173 200.953C464.362 200.828 465.362 201.147 466.173 201.91C466.981 202.65 467.45 203.52 467.579 204.519C467.731 205.517 467.749 206.363 467.634 207.059C467.539 207.729 467.348 208.373 467.06 208.993C466.428 210.379 465.564 211.13 464.469 211.245C464.166 211.277 463.875 211.202 463.597 211.019L462.758 210.436C461.917 209.841 461.136 209.581 460.413 209.657C459.714 209.731 458.901 210.288 457.973 211.328C457.069 212.366 456.146 213.677 455.205 215.26C452.036 220.52 449.603 226.29 447.907 232.573L446.796 236.79C446.505 237.834 446.232 238.594 445.975 239.068C445.716 239.52 445.284 239.778 444.678 239.841C444.095 239.903 443.489 239.849 442.858 239.679C442.253 239.531 441.699 239.306 441.196 239.006ZM469.435 224.509C469.315 222.471 469.45 220.501 469.838 218.598C470.225 216.672 470.817 214.795 471.614 212.968C472.409 211.116 473.378 209.353 474.522 207.677C475.686 205.976 476.976 204.461 478.392 203.134C481.462 200.289 484.699 198.687 488.102 198.329C492.088 197.91 494.918 199.273 496.593 202.42C497.177 203.49 497.538 204.795 497.676 206.336C497.813 207.853 497.67 209.294 497.248 210.658C496.823 211.999 496.166 213.258 495.277 214.436C494.408 215.588 493.331 216.656 492.044 217.64C490.78 218.621 489.375 219.488 487.828 220.24C484.641 221.754 481.162 222.733 477.39 223.177C477.332 223.513 477.325 224.009 477.37 224.664C477.416 225.319 477.563 226.046 477.812 226.844C478.058 227.62 478.413 228.301 478.876 228.889C479.862 230.199 481.147 230.771 482.732 230.604C485.436 230.319 487.987 229.249 490.384 227.394C491.236 226.763 491.913 226.138 492.414 225.519C492.935 224.875 493.405 224.531 493.825 224.487C494.245 224.443 494.633 224.661 494.99 225.142C495.368 225.597 495.59 226.139 495.656 226.769C495.786 228.004 495.549 229.113 494.946 230.096C492.318 233.342 488.102 235.27 482.298 235.881C478.872 236.242 476.013 235.506 473.723 233.673C471.147 231.588 469.718 228.533 469.435 224.509ZM487.822 203.06C485.375 203.318 483.197 205.244 481.29 208.838C479.683 211.93 478.505 215.518 477.757 219.603C481.608 218.797 484.825 216.903 487.41 213.921C489.779 211.126 490.842 208.575 490.599 206.268C490.356 203.96 489.431 202.891 487.822 203.06Z" fill="#999999"/></svg>
